<mxfile host="65bd71144e">
    <diagram id="ExdccTZqctQwAvQB16s_" name="Page-1">
        <mxGraphModel dx="2548" dy="1493" grid="0" gridSize="10" guides="1" tooltips="1" connect="1" arrows="1" fold="1" page="0" pageScale="1" pageWidth="827" pageHeight="1169" background="none" math="0" shadow="0">
            <root>
                <mxCell id="0"/>
                <mxCell id="1" parent="0"/>
                <mxCell id="36" value="" style="endArrow=classic;html=1;fontSize=18;fillColor=#60a917;strokeColor=#58E800;exitX=0.25;exitY=0;exitDx=0;exitDy=0;" parent="1" source="104" edge="1">
                    <mxGeometry x="-680" y="-450" width="50" height="50" as="geometry">
                        <mxPoint x="-400" y="-150" as="sourcePoint"/>
                        <mxPoint x="-270" y="-240" as="targetPoint"/>
                    </mxGeometry>
                </mxCell>
                <mxCell id="37" value="Node Discovery&lt;br&gt;(Node Discovery v5 Protocol)" style="edgeLabel;html=1;align=center;verticalAlign=middle;resizable=0;points=[];fontSize=14;" parent="36" vertex="1" connectable="0">
                    <mxGeometry relative="1" as="geometry">
                        <mxPoint x="3" y="-10" as="offset"/>
                    </mxGeometry>
                </mxCell>
                <mxCell id="41" value="" style="endArrow=classic;html=1;fontSize=18;fillColor=#e3c800;strokeColor=#FFBC21;" parent="1" edge="1">
                    <mxGeometry x="-930" y="-1089" width="50" height="50" as="geometry">
                        <mxPoint x="-640" y="-200" as="sourcePoint"/>
                        <mxPoint x="-640" y="-279" as="targetPoint"/>
                    </mxGeometry>
                </mxCell>
                <mxCell id="42" value="Events" style="edgeLabel;html=1;align=center;verticalAlign=middle;resizable=0;points=[];fontSize=14;" parent="41" vertex="1" connectable="0">
                    <mxGeometry relative="1" as="geometry">
                        <mxPoint y="60" as="offset"/>
                    </mxGeometry>
                </mxCell>
                <mxCell id="46" value="" style="endArrow=classic;html=1;fontSize=18;fillColor=#e3c800;strokeColor=#FFBC21;exitX=0.5;exitY=1;exitDx=0;exitDy=0;entryX=0.5;entryY=0;entryDx=0;entryDy=0;" parent="1" source="109" target="105" edge="1">
                    <mxGeometry x="-135" y="-650" width="50" height="50" as="geometry">
                        <mxPoint x="125" y="-10" as="sourcePoint"/>
                        <mxPoint x="485" y="-10" as="targetPoint"/>
                    </mxGeometry>
                </mxCell>
                <mxCell id="47" value="Connection published" style="edgeLabel;html=1;align=center;verticalAlign=middle;resizable=0;points=[];fontSize=14;" parent="46" vertex="1" connectable="0">
                    <mxGeometry relative="1" as="geometry">
                        <mxPoint x="5" y="-7" as="offset"/>
                    </mxGeometry>
                </mxCell>
                <mxCell id="51" value="&lt;span style=&quot;font-size: 12px&quot;&gt;&lt;br&gt;&lt;/span&gt;" style="rounded=1;whiteSpace=wrap;html=1;fontSize=14;fillColor=none;" parent="1" vertex="1">
                    <mxGeometry x="-439" y="-200" width="1081" height="616" as="geometry"/>
                </mxCell>
                <mxCell id="104" value="discovery" style="rounded=0;whiteSpace=wrap;html=1;fontSize=14;fontStyle=1" parent="1" vertex="1">
                    <mxGeometry x="-320" y="40" width="200" height="41" as="geometry"/>
                </mxCell>
                <mxCell id="105" value="peer_manager" style="rounded=0;whiteSpace=wrap;html=1;fontSize=14;fontStyle=1" parent="1" vertex="1">
                    <mxGeometry y="40" width="200" height="41" as="geometry"/>
                </mxCell>
                <mxCell id="106" value="rpc" style="rounded=0;whiteSpace=wrap;html=1;fontSize=14;fontStyle=1" parent="1" vertex="1">
                    <mxGeometry x="320" y="40" width="200" height="41" as="geometry"/>
                </mxCell>
                <mxCell id="107" value="BehaviourComposer" style="rounded=0;whiteSpace=wrap;html=1;fontSize=14;fontStyle=1" parent="1" vertex="1">
                    <mxGeometry y="200" width="200" height="41" as="geometry"/>
                </mxCell>
                <mxCell id="108" value="BeaconChain" style="rounded=0;whiteSpace=wrap;html=1;fontSize=14;fontStyle=1" parent="1" vertex="1">
                    <mxGeometry x="320" y="322" width="200" height="41" as="geometry"/>
                </mxCell>
                <mxCell id="109" value="libp2p" style="rounded=0;whiteSpace=wrap;html=1;fontSize=14;fontStyle=1" parent="1" vertex="1">
                    <mxGeometry y="-80" width="200" height="41" as="geometry"/>
                </mxCell>
                <mxCell id="112" value="" style="endArrow=classic;html=1;fontSize=18;fillColor=#60a917;strokeColor=#58E800;exitX=0.7;exitY=-0.049;exitDx=0;exitDy=0;entryX=0;entryY=0.5;entryDx=0;entryDy=0;exitPerimeter=0;" parent="1" source="104" target="109" edge="1">
                    <mxGeometry x="-470" y="-510" width="50" height="50" as="geometry">
                        <mxPoint x="-60" y="-20" as="sourcePoint"/>
                        <mxPoint x="-60" y="-300" as="targetPoint"/>
                    </mxGeometry>
                </mxCell>
                <mxCell id="113" value="Dial to the discovered peers" style="edgeLabel;html=1;align=center;verticalAlign=middle;resizable=0;points=[];fontSize=14;" parent="112" vertex="1" connectable="0">
                    <mxGeometry relative="1" as="geometry">
                        <mxPoint x="-30" y="11" as="offset"/>
                    </mxGeometry>
                </mxCell>
                <mxCell id="114" value="" style="endArrow=classic;html=1;fontSize=18;fillColor=#60a917;strokeColor=#58E800;exitX=0.25;exitY=0;exitDx=0;exitDy=0;" parent="1" edge="1">
                    <mxGeometry x="-1130" y="-690" width="50" height="50" as="geometry">
                        <mxPoint x="-720" y="-200" as="sourcePoint"/>
                        <mxPoint x="-720" y="-280" as="targetPoint"/>
                    </mxGeometry>
                </mxCell>
                <mxCell id="115" value="Packets" style="edgeLabel;html=1;align=center;verticalAlign=middle;resizable=0;points=[];fontSize=14;" parent="114" vertex="1" connectable="0">
                    <mxGeometry relative="1" as="geometry">
                        <mxPoint y="60" as="offset"/>
                    </mxGeometry>
                </mxCell>
                <mxCell id="116" value="" style="endArrow=classic;html=1;fontSize=18;fillColor=#e3c800;strokeColor=#FFBC21;exitX=0.5;exitY=1;exitDx=0;exitDy=0;entryX=0.5;entryY=0;entryDx=0;entryDy=0;" parent="1" source="105" target="107" edge="1">
                    <mxGeometry x="-285" y="360" width="50" height="50" as="geometry">
                        <mxPoint x="345" y="730" as="sourcePoint"/>
                        <mxPoint x="-15" y="730" as="targetPoint"/>
                    </mxGeometry>
                </mxCell>
                <mxCell id="117" value="Peer connected" style="edgeLabel;html=1;align=center;verticalAlign=middle;resizable=0;points=[];fontSize=14;" parent="116" vertex="1" connectable="0">
                    <mxGeometry relative="1" as="geometry">
                        <mxPoint y="-9" as="offset"/>
                    </mxGeometry>
                </mxCell>
                <mxCell id="118" value="" style="endArrow=classic;html=1;fontSize=18;strokeColor=#FFFF00;" parent="1" edge="1">
                    <mxGeometry x="-460" y="-710" width="50" height="50" as="geometry">
                        <mxPoint x="-560" y="-200" as="sourcePoint"/>
                        <mxPoint x="-560" y="-280" as="targetPoint"/>
                    </mxGeometry>
                </mxCell>
                <mxCell id="119" value="Calls" style="edgeLabel;html=1;align=center;verticalAlign=middle;resizable=0;points=[];fontSize=14;" parent="118" vertex="1" connectable="0">
                    <mxGeometry relative="1" as="geometry">
                        <mxPoint y="60" as="offset"/>
                    </mxGeometry>
                </mxCell>
                <mxCell id="120" value="" style="endArrow=classic;html=1;fontSize=18;strokeColor=#FFFF00;entryX=0.25;entryY=1;entryDx=0;entryDy=0;exitX=1;exitY=0;exitDx=0;exitDy=0;" parent="1" source="107" target="106" edge="1">
                    <mxGeometry x="350" y="-290" width="50" height="50" as="geometry">
                        <mxPoint x="250" y="220" as="sourcePoint"/>
                        <mxPoint x="250" y="140" as="targetPoint"/>
                    </mxGeometry>
                </mxCell>
                <mxCell id="130" value="RPC operations" style="edgeLabel;html=1;align=center;verticalAlign=middle;resizable=0;points=[];fontSize=14;" parent="120" vertex="1" connectable="0">
                    <mxGeometry relative="1" as="geometry">
                        <mxPoint x="-35" y="43" as="offset"/>
                    </mxGeometry>
                </mxCell>
                <mxCell id="122" value="" style="endArrow=classic;html=1;fontSize=18;fillColor=#60a917;strokeColor=#58E800;exitX=0.5;exitY=0;exitDx=0;exitDy=0;entryX=1;entryY=0.5;entryDx=0;entryDy=0;" parent="1" source="106" target="109" edge="1">
                    <mxGeometry x="-460" y="-500" width="50" height="50" as="geometry">
                        <mxPoint x="-170" y="47.990999999999985" as="sourcePoint"/>
                        <mxPoint x="10" y="-49.5" as="targetPoint"/>
                    </mxGeometry>
                </mxCell>
                <mxCell id="123" value="RPC calls" style="edgeLabel;html=1;align=center;verticalAlign=middle;resizable=0;points=[];fontSize=14;" parent="122" vertex="1" connectable="0">
                    <mxGeometry relative="1" as="geometry">
                        <mxPoint x="40" as="offset"/>
                    </mxGeometry>
                </mxCell>
                <mxCell id="124" value="" style="endArrow=classic;html=1;fontSize=18;fillColor=#60a917;strokeColor=#58E800;exitX=0.5;exitY=0;exitDx=0;exitDy=0;" parent="1" source="109" edge="1">
                    <mxGeometry x="-450" y="-490" width="50" height="50" as="geometry">
                        <mxPoint x="430" y="50" as="sourcePoint"/>
                        <mxPoint x="100" y="-240" as="targetPoint"/>
                    </mxGeometry>
                </mxCell>
                <mxCell id="126" value="" style="endArrow=classic;html=1;fontSize=18;strokeColor=#FFFF00;entryX=0.5;entryY=0;entryDx=0;entryDy=0;exitX=0.5;exitY=1;exitDx=0;exitDy=0;" parent="1" source="106" target="108" edge="1">
                    <mxGeometry x="360" y="-280" width="50" height="50" as="geometry">
                        <mxPoint x="173" y="205.48999999999978" as="sourcePoint"/>
                        <mxPoint x="368" y="92.51699999999983" as="targetPoint"/>
                    </mxGeometry>
                </mxCell>
                <mxCell id="128" value="Read/Write" style="edgeLabel;html=1;align=center;verticalAlign=middle;resizable=0;points=[];fontSize=14;" parent="1" vertex="1" connectable="0">
                    <mxGeometry x="425" y="140" as="geometry">
                        <mxPoint x="8" y="-2" as="offset"/>
                    </mxGeometry>
                </mxCell>
                <mxCell id="129" value="Ray" style="text;html=1;align=center;verticalAlign=middle;resizable=0;points=[];autosize=1;strokeColor=none;fillColor=none;fontSize=22;fontStyle=1" parent="1" vertex="1">
                    <mxGeometry x="-456" y="-232" width="51" height="30" as="geometry"/>
                </mxCell>
                <mxCell id="131" value="" style="endArrow=classic;html=1;fontSize=18;fillColor=#e3c800;strokeColor=#FFBC21;exitX=0;exitY=1;exitDx=0;exitDy=0;entryX=0.75;entryY=0;entryDx=0;entryDy=0;" parent="1" source="106" target="107" edge="1">
                    <mxGeometry x="-275" y="370" width="50" height="50" as="geometry">
                        <mxPoint x="110" y="91" as="sourcePoint"/>
                        <mxPoint x="110" y="210" as="targetPoint"/>
                    </mxGeometry>
                </mxCell>
                <mxCell id="132" value="Request/Response" style="edgeLabel;html=1;align=center;verticalAlign=middle;resizable=0;points=[];fontSize=14;" parent="131" vertex="1" connectable="0">
                    <mxGeometry relative="1" as="geometry">
                        <mxPoint x="32" y="-44" as="offset"/>
                    </mxGeometry>
                </mxCell>
                <mxCell id="133" value="SyncManager" style="rounded=0;whiteSpace=wrap;html=1;fontSize=14;fontStyle=1" vertex="1" parent="1">
                    <mxGeometry y="320" width="200" height="41" as="geometry"/>
                </mxCell>
                <mxCell id="134" value="" style="endArrow=classic;html=1;fontSize=18;strokeColor=#FFFF00;exitX=0.5;exitY=1;exitDx=0;exitDy=0;" edge="1" parent="1" source="107" target="133">
                    <mxGeometry x="360" y="-280" width="50" height="50" as="geometry">
                        <mxPoint x="210" y="210" as="sourcePoint"/>
                        <mxPoint x="380" y="91" as="targetPoint"/>
                    </mxGeometry>
                </mxCell>
                <mxCell id="135" value="Sync operations" style="edgeLabel;html=1;align=center;verticalAlign=middle;resizable=0;points=[];fontSize=14;" vertex="1" connectable="0" parent="134">
                    <mxGeometry relative="1" as="geometry">
                        <mxPoint x="-2" y="-5" as="offset"/>
                    </mxGeometry>
                </mxCell>
                <mxCell id="139" value="" style="endArrow=classic;html=1;fontSize=18;strokeColor=#FFFF00;entryX=0;entryY=0.5;entryDx=0;entryDy=0;exitX=1;exitY=0.5;exitDx=0;exitDy=0;" edge="1" parent="1" source="133" target="108">
                    <mxGeometry x="370" y="-270" width="50" height="50" as="geometry">
                        <mxPoint x="430" y="91" as="sourcePoint"/>
                        <mxPoint x="430" y="332" as="targetPoint"/>
                    </mxGeometry>
                </mxCell>
                <mxCell id="140" value="Read" style="edgeLabel;html=1;align=center;verticalAlign=middle;resizable=0;points=[];fontSize=14;" vertex="1" connectable="0" parent="139">
                    <mxGeometry relative="1" as="geometry">
                        <mxPoint x="-2" y="-3" as="offset"/>
                    </mxGeometry>
                </mxCell>
            </root>
        </mxGraphModel>
    </diagram>
</mxfile>